<svg xmlns="http://www.w3.org/2000/svg" width="352" height="201" class="diagram" version="1.1"><g transform="translate(8,16)"><path fill="none" stroke="#000" d="M 224,0 L 328,0"/><path fill="none" stroke="#000" d="M 0,16 L 112,16"/><path fill="none" stroke="#000" d="M 112,32 L 216,32"/><path fill="none" stroke="#000" d="M 224,48 L 328,48"/><path fill="none" stroke="#000" d="M 112,64 L 184,64"/><path fill="none" stroke="#000" d="M 0,80 L 48,80"/><path fill="none" stroke="#000" d="M 48,80 L 112,80"/><path fill="none" stroke="#000" d="M 232,80 L 336,80"/><path fill="none" stroke="#000" d="M 216,96 L 224,96"/><path fill="none" stroke="#000" d="M 80,128 L 216,128"/><path fill="none" stroke="#000" d="M 232,128 L 336,128"/><path fill="none" stroke="#000" d="M 64,144 L 72,144"/><path fill="none" stroke="#000" d="M 80,176 L 216,176"/><path fill="none" stroke="#000" d="M 0,16 L 0,80"/><path fill="none" stroke="#000" d="M 48,80 L 48,128"/><path fill="none" stroke="#000" d="M 80,128 L 80,176"/><path fill="none" stroke="#000" d="M 112,16 L 112,32"/><path fill="none" stroke="#000" d="M 112,32 L 112,64"/><path fill="none" stroke="#000" d="M 112,64 L 112,80"/><path fill="none" stroke="#000" d="M 216,128 L 216,176"/><path fill="none" stroke="#000" d="M 224,0 L 224,48"/><path fill="none" stroke="#000" d="M 232,80 L 232,128"/><path fill="none" stroke="#000" d="M 328,0 L 328,48"/><path fill="none" stroke="#000" d="M 336,80 L 336,128"/><polygon fill="#000" points="80 144 68 138.4 68 149.6" transform="rotate(0.000000, 72.000000, 144.000000)"/><polygon fill="#000" points="224 32 212 26.4 212 37.6" transform="rotate(0.000000, 216.000000, 32.000000)"/><polygon fill="#000" points="232 96 220 90.4 220 101.6" transform="rotate(0.000000, 224.000000, 96.000000)"/><path fill="none" stroke="#000" d="M 184,64 A 16,16 0 0,1 200,80"/><path fill="none" stroke="#000" d="M 200,80 A 16,16 0 0,0 216,96"/><path fill="none" stroke="#000" d="M 48,128 A 16,16 0 0,0 64,144"/><text x="288" y="20" fill="#000" font-family="Menlo,Lucida Console,monospace" font-size="1em" text-anchor="middle">t</text><text x="288" y="36" fill="#000" font-family="Menlo,Lucida Console,monospace" font-size="1em" text-anchor="middle">n</text><text x="296" y="100" fill="#000" font-family="Menlo,Lucida Console,monospace" font-size="1em" text-anchor="middle">t</text><text x="112" y="148" fill="#000" font-family="Menlo,Lucida Console,monospace" font-size="1em" text-anchor="middle">-</text><text x="184" y="148" fill="#000" font-family="Menlo,Lucida Console,monospace" font-size="1em" text-anchor="middle">t</text><text x="200" y="148" fill="#000" font-family="Menlo,Lucida Console,monospace" font-size="1em" text-anchor="middle">2</text><text x="16" y="36" fill="#000" font-family="Menlo,Lucida Console,monospace" font-size="1em" text-anchor="middle">M</text><text x="240" y="36" fill="#000" font-family="Menlo,Lucida Console,monospace" font-size="1em" text-anchor="middle">D</text><text x="40" y="52" fill="#000" font-family="Menlo,Lucida Console,monospace" font-size="1em" text-anchor="middle">r</text><text x="72" y="52" fill="#000" font-family="Menlo,Lucida Console,monospace" font-size="1em" text-anchor="middle">t</text><text x="296" y="116" fill="#000" font-family="Menlo,Lucida Console,monospace" font-size="1em" text-anchor="middle">n</text><text x="96" y="148" fill="#000" font-family="Menlo,Lucida Console,monospace" font-size="1em" text-anchor="middle">a</text><text x="248" y="36" fill="#000" font-family="Menlo,Lucida Console,monospace" font-size="1em" text-anchor="middle">a</text><text x="272" y="36" fill="#000" font-family="Menlo,Lucida Console,monospace" font-size="1em" text-anchor="middle">c</text><text x="304" y="36" fill="#000" font-family="Menlo,Lucida Console,monospace" font-size="1em" text-anchor="middle">e</text><text x="16" y="52" fill="#000" font-family="Menlo,Lucida Console,monospace" font-size="1em" text-anchor="middle">A</text><text x="32" y="52" fill="#000" font-family="Menlo,Lucida Console,monospace" font-size="1em" text-anchor="middle">g</text><text x="272" y="116" fill="#000" font-family="Menlo,Lucida Console,monospace" font-size="1em" text-anchor="middle">a</text><text x="280" y="116" fill="#000" font-family="Menlo,Lucida Console,monospace" font-size="1em" text-anchor="middle">c</text><text x="280" y="36" fill="#000" font-family="Menlo,Lucida Console,monospace" font-size="1em" text-anchor="middle">e</text><text x="24" y="68" fill="#000" font-family="Menlo,Lucida Console,monospace" font-size="1em" text-anchor="middle">w</text><text x="168" y="148" fill="#000" font-family="Menlo,Lucida Console,monospace" font-size="1em" text-anchor="middle">a</text><text x="248" y="20" fill="#000" font-family="Menlo,Lucida Console,monospace" font-size="1em" text-anchor="middle">s</text><text x="296" y="36" fill="#000" font-family="Menlo,Lucida Console,monospace" font-size="1em" text-anchor="middle">t</text><text x="48" y="52" fill="#000" font-family="Menlo,Lucida Console,monospace" font-size="1em" text-anchor="middle">e</text><text x="80" y="52" fill="#000" font-family="Menlo,Lucida Console,monospace" font-size="1em" text-anchor="middle">i</text><text x="248" y="100" fill="#000" font-family="Menlo,Lucida Console,monospace" font-size="1em" text-anchor="middle">e</text><text x="152" y="148" fill="#000" font-family="Menlo,Lucida Console,monospace" font-size="1em" text-anchor="middle">h</text><text x="192" y="148" fill="#000" font-family="Menlo,Lucida Console,monospace" font-size="1em" text-anchor="middle">-</text><text x="144" y="164" fill="#000" font-family="Menlo,Lucida Console,monospace" font-size="1em" text-anchor="middle">n</text><text x="304" y="20" fill="#000" font-family="Menlo,Lucida Console,monospace" font-size="1em" text-anchor="middle">1</text><text x="88" y="52" fill="#000" font-family="Menlo,Lucida Console,monospace" font-size="1em" text-anchor="middle">o</text><text x="264" y="100" fill="#000" font-family="Menlo,Lucida Console,monospace" font-size="1em" text-anchor="middle">-</text><text x="312" y="100" fill="#000" font-family="Menlo,Lucida Console,monospace" font-size="1em" text-anchor="middle">1</text><text x="248" y="116" fill="#000" font-family="Menlo,Lucida Console,monospace" font-size="1em" text-anchor="middle">D</text><text x="256" y="116" fill="#000" font-family="Menlo,Lucida Console,monospace" font-size="1em" text-anchor="middle">a</text><text x="120" y="148" fill="#000" font-family="Menlo,Lucida Console,monospace" font-size="1em" text-anchor="middle">s</text><text x="64" y="36" fill="#000" font-family="Menlo,Lucida Console,monospace" font-size="1em" text-anchor="middle">s</text><text x="304" y="100" fill="#000" font-family="Menlo,Lucida Console,monospace" font-size="1em" text-anchor="middle">-</text><text x="176" y="148" fill="#000" font-family="Menlo,Lucida Console,monospace" font-size="1em" text-anchor="middle">s</text><text x="96" y="164" fill="#000" font-family="Menlo,Lucida Console,monospace" font-size="1em" text-anchor="middle">D</text><text x="112" y="164" fill="#000" font-family="Menlo,Lucida Console,monospace" font-size="1em" text-anchor="middle">t</text><text x="256" y="20" fill="#000" font-family="Menlo,Lucida Console,monospace" font-size="1em" text-anchor="middle">-</text><text x="56" y="52" fill="#000" font-family="Menlo,Lucida Console,monospace" font-size="1em" text-anchor="middle">g</text><text x="40" y="68" fill="#000" font-family="Menlo,Lucida Console,monospace" font-size="1em" text-anchor="middle">r</text><text x="48" y="68" fill="#000" font-family="Menlo,Lucida Console,monospace" font-size="1em" text-anchor="middle">m</text><text x="128" y="148" fill="#000" font-family="Menlo,Lucida Console,monospace" font-size="1em" text-anchor="middle">o</text><text x="104" y="164" fill="#000" font-family="Menlo,Lucida Console,monospace" font-size="1em" text-anchor="middle">a</text><text x="272" y="20" fill="#000" font-family="Menlo,Lucida Console,monospace" font-size="1em" text-anchor="middle">a</text><text x="256" y="36" fill="#000" font-family="Menlo,Lucida Console,monospace" font-size="1em" text-anchor="middle">t</text><text x="312" y="36" fill="#000" font-family="Menlo,Lucida Console,monospace" font-size="1em" text-anchor="middle">r</text><text x="24" y="52" fill="#000" font-family="Menlo,Lucida Console,monospace" font-size="1em" text-anchor="middle">g</text><text x="136" y="148" fill="#000" font-family="Menlo,Lucida Console,monospace" font-size="1em" text-anchor="middle">u</text><text x="160" y="148" fill="#000" font-family="Menlo,Lucida Console,monospace" font-size="1em" text-anchor="middle">e</text><text x="128" y="164" fill="#000" font-family="Menlo,Lucida Console,monospace" font-size="1em" text-anchor="middle">c</text><text x="32" y="68" fill="#000" font-family="Menlo,Lucida Console,monospace" font-size="1em" text-anchor="middle">a</text><text x="120" y="164" fill="#000" font-family="Menlo,Lucida Console,monospace" font-size="1em" text-anchor="middle">a</text><text x="136" y="164" fill="#000" font-family="Menlo,Lucida Console,monospace" font-size="1em" text-anchor="middle">e</text><text x="160" y="164" fill="#000" font-family="Menlo,Lucida Console,monospace" font-size="1em" text-anchor="middle">e</text><text x="48" y="36" fill="#000" font-family="Menlo,Lucida Console,monospace" font-size="1em" text-anchor="middle">i</text><text x="264" y="36" fill="#000" font-family="Menlo,Lucida Console,monospace" font-size="1em" text-anchor="middle">a</text><text x="272" y="100" fill="#000" font-family="Menlo,Lucida Console,monospace" font-size="1em" text-anchor="middle">w</text><text x="264" y="116" fill="#000" font-family="Menlo,Lucida Console,monospace" font-size="1em" text-anchor="middle">t</text><text x="312" y="116" fill="#000" font-family="Menlo,Lucida Console,monospace" font-size="1em" text-anchor="middle">e</text><text x="144" y="148" fill="#000" font-family="Menlo,Lucida Console,monospace" font-size="1em" text-anchor="middle">t</text><text x="280" y="100" fill="#000" font-family="Menlo,Lucida Console,monospace" font-size="1em" text-anchor="middle">e</text><text x="152" y="164" fill="#000" font-family="Menlo,Lucida Console,monospace" font-size="1em" text-anchor="middle">t</text><text x="280" y="20" fill="#000" font-family="Menlo,Lucida Console,monospace" font-size="1em" text-anchor="middle">s</text><text x="32" y="36" fill="#000" font-family="Menlo,Lucida Console,monospace" font-size="1em" text-anchor="middle">t</text><text x="64" y="52" fill="#000" font-family="Menlo,Lucida Console,monospace" font-size="1em" text-anchor="middle">a</text><text x="304" y="116" fill="#000" font-family="Menlo,Lucida Console,monospace" font-size="1em" text-anchor="middle">t</text><text x="168" y="164" fill="#000" font-family="Menlo,Lucida Console,monospace" font-size="1em" text-anchor="middle">r</text><text x="24" y="36" fill="#000" font-family="Menlo,Lucida Console,monospace" font-size="1em" text-anchor="middle">e</text><text x="256" y="100" fill="#000" font-family="Menlo,Lucida Console,monospace" font-size="1em" text-anchor="middle">u</text><text x="240" y="20" fill="#000" font-family="Menlo,Lucida Console,monospace" font-size="1em" text-anchor="middle">u</text><text x="264" y="20" fill="#000" font-family="Menlo,Lucida Console,monospace" font-size="1em" text-anchor="middle">e</text><text x="296" y="20" fill="#000" font-family="Menlo,Lucida Console,monospace" font-size="1em" text-anchor="middle">-</text><text x="40" y="36" fill="#000" font-family="Menlo,Lucida Console,monospace" font-size="1em" text-anchor="middle">r</text><text x="56" y="36" fill="#000" font-family="Menlo,Lucida Console,monospace" font-size="1em" text-anchor="middle">c</text><text x="96" y="52" fill="#000" font-family="Menlo,Lucida Console,monospace" font-size="1em" text-anchor="middle">n</text><text x="16" y="68" fill="#000" font-family="Menlo,Lucida Console,monospace" font-size="1em" text-anchor="middle">S</text><text x="288" y="100" fill="#000" font-family="Menlo,Lucida Console,monospace" font-size="1em" text-anchor="middle">s</text><text x="288" y="116" fill="#000" font-family="Menlo,Lucida Console,monospace" font-size="1em" text-anchor="middle">e</text><text x="320" y="116" fill="#000" font-family="Menlo,Lucida Console,monospace" font-size="1em" text-anchor="middle">r</text><text x="104" y="148" fill="#000" font-family="Menlo,Lucida Console,monospace" font-size="1em" text-anchor="middle">p</text></g></svg>